<mxfile host="65bd71144e">
    <diagram id="vF3Ydf7Zcpstkcwwwqt2" name="Page-1">
        <mxGraphModel dx="554" dy="475" grid="0" gridSize="10" guides="1" tooltips="1" connect="1" arrows="1" fold="1" page="1" pageScale="1" pageWidth="850" pageHeight="1100" math="0" shadow="0">
            <root>
                <mxCell id="0"/>
                <mxCell id="1" parent="0"/>
                <mxCell id="2" value="" style="whiteSpace=wrap;html=1;strokeColor=#007FFF;" parent="1" vertex="1">
                    <mxGeometry x="599" y="38" width="170" height="200" as="geometry"/>
                </mxCell>
                <mxCell id="3" value="" style="whiteSpace=wrap;html=1;fillColor=#1ba1e2;fontColor=#ffffff;strokeColor=#006EAF;" parent="1" vertex="1">
                    <mxGeometry x="599" y="38" width="170" height="40" as="geometry"/>
                </mxCell>
                <mxCell id="4" value="Info_Estados" style="text;strokeColor=none;align=center;fillColor=none;html=1;verticalAlign=middle;whiteSpace=wrap;rounded=0;" parent="1" vertex="1">
                    <mxGeometry x="649" y="43" width="70" height="30" as="geometry"/>
                </mxCell>
                <mxCell id="5" value="&lt;font style=&quot;font-size: 11px;&quot;&gt;Nombre_Estado(&lt;font color=&quot;#ff0000&quot;&gt;PK&lt;/font&gt;): varchar (50)&lt;br&gt;&lt;br&gt;Población: varchar (50)&lt;br&gt;&lt;br&gt;PBI: int&lt;br&gt;&lt;br&gt;Area_Kms: int&lt;br&gt;&lt;br&gt;Ingreso_medio: int&lt;br&gt;&lt;br&gt;&lt;br&gt;&lt;/font&gt;" style="text;strokeColor=none;align=left;fillColor=none;html=1;verticalAlign=middle;whiteSpace=wrap;rounded=0;" parent="1" vertex="1">
                    <mxGeometry x="599" y="88" width="170" height="160" as="geometry"/>
                </mxCell>
                <mxCell id="6" value="" style="whiteSpace=wrap;html=1;strokeColor=#007FFF;" parent="1" vertex="1">
                    <mxGeometry x="77" y="38" width="180" height="290" as="geometry"/>
                </mxCell>
                <mxCell id="7" value="" style="whiteSpace=wrap;html=1;fillColor=#1ba1e2;fontColor=#ffffff;strokeColor=#006EAF;" parent="1" vertex="1">
                    <mxGeometry x="77" y="38" width="180" height="40" as="geometry"/>
                </mxCell>
                <mxCell id="8" value="Metadata" style="text;strokeColor=none;align=center;fillColor=none;html=1;verticalAlign=middle;whiteSpace=wrap;rounded=0;" parent="1" vertex="1">
                    <mxGeometry x="132" y="43" width="70" height="30" as="geometry"/>
                </mxCell>
                <mxCell id="20" style="edgeStyle=orthogonalEdgeStyle;html=1;exitX=1;exitY=0.202;exitDx=0;exitDy=0;entryX=0.006;entryY=0.073;entryDx=0;entryDy=0;entryPerimeter=0;fontColor=#FF0000;startArrow=classic;startFill=1;exitPerimeter=0;endArrow=ERmany;endFill=0;" edge="1" parent="1" source="9" target="13">
                    <mxGeometry relative="1" as="geometry"/>
                </mxCell>
                <UserObject label="&lt;font style=&quot;font-size: 11px;&quot;&gt;Nombre: varchar (50)&lt;br&gt;&lt;br&gt;Dirección: varchar (50)&lt;br&gt;&lt;br&gt;Gmap_id (&lt;font color=&quot;#ff0000&quot;&gt;PK&lt;/font&gt;): varchar (50)&lt;br&gt;&lt;br&gt;Latitud: float&lt;br&gt;&lt;br&gt;Longitud: float&lt;br&gt;&lt;br&gt;Promedio_Rating: float&lt;br&gt;&lt;br&gt;Cantidad_Reviews: int&lt;br&gt;&lt;br&gt;Estado: varchar (50)&lt;br&gt;&lt;br&gt;&lt;br&gt;&lt;br&gt;&lt;br&gt;&lt;/font&gt;" tooltip="" id="9">
                    <mxCell style="text;strokeColor=none;align=left;fillColor=none;html=1;verticalAlign=middle;whiteSpace=wrap;rounded=0;" parent="1" vertex="1">
                        <mxGeometry x="77" y="108" width="180" height="232.5" as="geometry"/>
                    </mxCell>
                </UserObject>
                <mxCell id="10" value="" style="whiteSpace=wrap;html=1;strokeColor=#007FFF;" parent="1" vertex="1">
                    <mxGeometry x="341" y="39" width="180" height="230" as="geometry"/>
                </mxCell>
                <mxCell id="11" value="" style="whiteSpace=wrap;html=1;fillColor=#1ba1e2;fontColor=#ffffff;strokeColor=#006EAF;" parent="1" vertex="1">
                    <mxGeometry x="341" y="39" width="180" height="40" as="geometry"/>
                </mxCell>
                <mxCell id="12" value="Estados_Concatenados" style="text;strokeColor=none;align=center;fillColor=none;html=1;verticalAlign=middle;whiteSpace=wrap;rounded=0;" parent="1" vertex="1">
                    <mxGeometry x="396" y="44" width="70" height="30" as="geometry"/>
                </mxCell>
                <mxCell id="19" style="edgeStyle=orthogonalEdgeStyle;html=1;exitX=1.006;exitY=0.372;exitDx=0;exitDy=0;fontColor=#FF0000;exitPerimeter=0;startArrow=ERmany;startFill=0;" edge="1" parent="1" source="13">
                    <mxGeometry relative="1" as="geometry">
                        <mxPoint x="599" y="93" as="targetPoint"/>
                        <Array as="points">
                            <mxPoint x="573" y="212"/>
                            <mxPoint x="573" y="93"/>
                        </Array>
                    </mxGeometry>
                </mxCell>
                <mxCell id="13" value="&lt;font style=&quot;font-size: 11px;&quot;&gt;User_Id (&lt;font color=&quot;#ff0000&quot;&gt;PK&lt;/font&gt;): varchar (50)&lt;br&gt;&lt;br&gt;Nombre: varchar (50)&lt;br&gt;&lt;br&gt;Rating: varchar (50)&lt;br&gt;&lt;br&gt;Gmap_Id (&lt;font color=&quot;#ff0000&quot;&gt;FK&lt;/font&gt;): varchar (50)&lt;br&gt;&lt;br&gt;Nombre_Estado (&lt;font color=&quot;#ff0000&quot;&gt;FK&lt;/font&gt;): varchar (50)&lt;br&gt;&lt;br&gt;Resp_Text: varchar (50)&lt;br&gt;&lt;br&gt;&lt;br&gt;&lt;br&gt;&amp;nbsp;&lt;br&gt;&lt;br&gt;&lt;br&gt;&lt;br&gt;&lt;br&gt;&lt;/font&gt;" style="text;strokeColor=none;align=left;fillColor=none;html=1;verticalAlign=middle;whiteSpace=wrap;rounded=0;" parent="1" vertex="1">
                    <mxGeometry x="341" y="173.38" width="180" height="103.75" as="geometry"/>
                </mxCell>
            </root>
        </mxGraphModel>
    </diagram>
</mxfile>